<svg width="37" height="36" viewBox="0 0 37 36" fill="none" xmlns="http://www.w3.org/2000/svg">
<path fill-rule="evenodd" clip-rule="evenodd" d="M36.6609 14.0012V36H14.257L14.2585 28.0004H18.3302L18.3288 32.0002H32.5892V18.001L30.5508 18.001V17.999H28.5152L28.5152 14.0012H36.6609ZM4.07344 28.0004V32.0017H10.1836V36H0V28.0004H4.07344ZM28.5141 22.0008V28.0004H22.4039V22.0008H28.5141ZM24.4406 0.00199989V17.999H20.3672L20.3672 4.00178H4.07344V20.0009L18.3305 20.0009V24.0007H0V0.00199989H24.4406ZM16.2938 8.00156V16.0011H8.14688V8.00156H16.2938ZM28.5141 0L36.6609 0.00199989V7.99956L32.5887 7.99756V3.99978H28.5141V0Z" fill="black"/>

<style>
    svg { fill: #000; }

    @media (prefers-color-scheme: dark) {
        svg { fill: #FFF; }
    }
    </style>
    
</svg>
